<mxfile host="app.diagrams.net" agent="Mozilla/5.0 (Macintosh; Intel Mac OS X 10_15_7) AppleWebKit/605.1.15 (KHTML, like Gecko) Version/17.4.1 Safari/605.1.15" version="24.8.3">
  <diagram id="C5RBs43oDa-KdzZeNtuy" name="Page-1">
    <mxGraphModel dx="1078" dy="560" grid="1" gridSize="10" guides="1" tooltips="1" connect="1" arrows="1" fold="1" page="1" pageScale="1" pageWidth="827" pageHeight="1169" math="0" shadow="0">
      <root>
        <mxCell id="WIyWlLk6GJQsqaUBKTNV-0" />
        <mxCell id="WIyWlLk6GJQsqaUBKTNV-1" parent="WIyWlLk6GJQsqaUBKTNV-0" />
        <UserObject label="" tags="Tło" id="oWdrgxbYppHmvKw1VFX--1">
          <mxCell style="vsdxID=42;edgeStyle=none;dashed=1;dashPattern=1.00 6.00;startArrow=none;endArrow=none;startSize=5;endSize=5;strokeWidth=3;strokeColor=#000000;spacingTop=0;spacingBottom=0;spacingLeft=0;spacingRight=0;verticalAlign=middle;html=1;labelBackgroundColor=#ffffff;rounded=0;exitX=1.005;exitY=0.525;exitDx=0;exitDy=0;exitPerimeter=0;entryX=-0.001;entryY=0.282;entryDx=0;entryDy=0;entryPerimeter=0;" edge="1" parent="WIyWlLk6GJQsqaUBKTNV-1" source="oWdrgxbYppHmvKw1VFX--24" target="oWdrgxbYppHmvKw1VFX--6">
            <mxGeometry relative="1" as="geometry">
              <mxPoint y="-1" as="offset" />
              <Array as="points" />
              <mxPoint x="287" y="674" as="sourcePoint" />
              <mxPoint x="390" y="710" as="targetPoint" />
            </mxGeometry>
          </mxCell>
        </UserObject>
        <UserObject label="" tags="Tło" id="oWdrgxbYppHmvKw1VFX--2">
          <mxCell style="vsdxID=46;edgeStyle=none;dashed=1;dashPattern=1.00 6.00;startArrow=none;endArrow=none;startSize=5;endSize=5;strokeWidth=3;strokeColor=#000000;spacingTop=0;spacingBottom=0;spacingLeft=0;spacingRight=0;verticalAlign=middle;html=1;labelBackgroundColor=#ffffff;rounded=0;entryX=0;entryY=0.5;entryDx=0;entryDy=0;entryPerimeter=0;exitX=-0.037;exitY=0.079;exitDx=0;exitDy=0;exitPerimeter=0;" edge="1" parent="WIyWlLk6GJQsqaUBKTNV-1" source="oWdrgxbYppHmvKw1VFX--21" target="oWdrgxbYppHmvKw1VFX--11">
            <mxGeometry relative="1" as="geometry">
              <mxPoint x="-1" y="-1" as="offset" />
              <Array as="points" />
              <mxPoint x="766.2" y="686.8000000000002" as="sourcePoint" />
              <mxPoint x="825" y="694" as="targetPoint" />
            </mxGeometry>
          </mxCell>
        </UserObject>
        <mxCell id="oWdrgxbYppHmvKw1VFX--3" value="&lt;font style=&quot;font-size: 14px;&quot;&gt;Pracownik&lt;/font&gt;" style="swimlane;fontStyle=1;align=center;verticalAlign=top;childLayout=stackLayout;horizontal=1;startSize=26;horizontalStack=0;resizeParent=1;resizeParentMax=0;resizeLast=0;collapsible=1;marginBottom=0;whiteSpace=wrap;html=1;" vertex="1" parent="WIyWlLk6GJQsqaUBKTNV-1">
          <mxGeometry x="440" y="437" width="230" height="268" as="geometry">
            <mxRectangle x="440" y="437" width="120" height="30" as="alternateBounds" />
          </mxGeometry>
        </mxCell>
        <mxCell id="oWdrgxbYppHmvKw1VFX--4" value="imię&lt;div&gt;&lt;br&gt;&lt;/div&gt;&lt;div&gt;nazwisko&lt;/div&gt;&lt;div&gt;&lt;br&gt;&lt;/div&gt;&lt;div&gt;pesel {unique}&lt;/div&gt;&lt;div&gt;&lt;br&gt;&lt;/div&gt;&lt;div&gt;pensja&lt;/div&gt;&lt;div&gt;&lt;br&gt;&lt;/div&gt;&lt;div&gt;&lt;u&gt;dodatekDoPensji = 15%&lt;/u&gt;&lt;/div&gt;&lt;div&gt;&lt;u&gt;&lt;br&gt;&lt;/u&gt;&lt;/div&gt;&lt;div&gt;stanowisko {magazynier, operator wózka, przedstawiciel handlowy, kierownik}&lt;/div&gt;&lt;div&gt;&amp;nbsp;&lt;/div&gt;&lt;div&gt;&lt;br&gt;&lt;/div&gt;" style="text;strokeColor=none;fillColor=none;align=left;verticalAlign=top;spacingLeft=4;spacingRight=4;overflow=hidden;rotatable=0;points=[[0,0.5],[1,0.5]];portConstraint=eastwest;whiteSpace=wrap;html=1;" vertex="1" parent="oWdrgxbYppHmvKw1VFX--3">
          <mxGeometry y="26" width="230" height="194" as="geometry" />
        </mxCell>
        <mxCell id="oWdrgxbYppHmvKw1VFX--5" value="" style="line;strokeWidth=1;fillColor=none;align=left;verticalAlign=middle;spacingTop=-1;spacingLeft=3;spacingRight=3;rotatable=0;labelPosition=right;points=[];portConstraint=eastwest;strokeColor=inherit;" vertex="1" parent="oWdrgxbYppHmvKw1VFX--3">
          <mxGeometry y="220" width="230" height="8" as="geometry" />
        </mxCell>
        <mxCell id="oWdrgxbYppHmvKw1VFX--6" value="&lt;span style=&quot;caret-color: rgb(7, 7, 7); color: rgb(7, 7, 7);&quot;&gt;&lt;font style=&quot;font-size: 14px;&quot;&gt;ostatni_serwis_zapis(data)&lt;/font&gt;&lt;/span&gt;" style="text;strokeColor=none;fillColor=none;align=left;verticalAlign=top;spacingLeft=4;spacingRight=4;overflow=hidden;rotatable=0;points=[[0,0.5],[1,0.5]];portConstraint=eastwest;whiteSpace=wrap;html=1;" vertex="1" parent="oWdrgxbYppHmvKw1VFX--3">
          <mxGeometry y="228" width="230" height="40" as="geometry" />
        </mxCell>
        <mxCell id="oWdrgxbYppHmvKw1VFX--7" value="&lt;font style=&quot;font-size: 14px;&quot;&gt;Zamówienie&lt;/font&gt;" style="swimlane;fontStyle=1;align=center;verticalAlign=top;childLayout=stackLayout;horizontal=1;startSize=26;horizontalStack=0;resizeParent=1;resizeParentMax=0;resizeLast=0;collapsible=1;marginBottom=0;whiteSpace=wrap;html=1;" vertex="1" parent="WIyWlLk6GJQsqaUBKTNV-1">
          <mxGeometry x="800" y="40" width="210" height="306" as="geometry" />
        </mxCell>
        <mxCell id="oWdrgxbYppHmvKw1VFX--8" value="&lt;font style=&quot;font-size: 14px;&quot;&gt;numer {unique}&lt;br&gt;&lt;br&gt;dataZłożenia {&lt;span style=&quot;caret-color: rgb(89, 93, 110); font-size: 13px; background-color: rgb(249, 249, 252);&quot;&gt;&lt;font face=&quot;Helvetica&quot;&gt;dataZakończenia &amp;gt;= dataRozpoczęcia&lt;/font&gt;&lt;/span&gt;}&lt;br&gt;&lt;br&gt;planowanaDataWysyłki&lt;br&gt;&lt;br&gt;&lt;br&gt;&lt;br&gt;&lt;/font&gt;" style="text;strokeColor=none;fillColor=none;align=left;verticalAlign=top;spacingLeft=4;spacingRight=4;overflow=hidden;rotatable=0;points=[[0,0.5],[1,0.5]];portConstraint=eastwest;whiteSpace=wrap;html=1;" vertex="1" parent="oWdrgxbYppHmvKw1VFX--7">
          <mxGeometry y="26" width="210" height="234" as="geometry" />
        </mxCell>
        <mxCell id="oWdrgxbYppHmvKw1VFX--9" value="" style="line;strokeWidth=1;fillColor=none;align=left;verticalAlign=middle;spacingTop=-1;spacingLeft=3;spacingRight=3;rotatable=0;labelPosition=right;points=[];portConstraint=eastwest;strokeColor=inherit;" vertex="1" parent="oWdrgxbYppHmvKw1VFX--7">
          <mxGeometry y="260" width="210" height="8" as="geometry" />
        </mxCell>
        <mxCell id="oWdrgxbYppHmvKw1VFX--10" value="&lt;font style=&quot;font-size: 14px;&quot;&gt;&lt;span style=&quot;caret-color: rgb(7, 7, 7); color: rgb(7, 7, 7);&quot;&gt;najwiecej_kontenerow()&lt;/span&gt;&lt;/font&gt;" style="text;strokeColor=none;fillColor=none;align=left;verticalAlign=top;spacingLeft=4;spacingRight=4;overflow=hidden;rotatable=0;points=[[0,0.5],[1,0.5]];portConstraint=eastwest;whiteSpace=wrap;html=1;" vertex="1" parent="oWdrgxbYppHmvKw1VFX--7">
          <mxGeometry y="268" width="210" height="38" as="geometry" />
        </mxCell>
        <mxCell id="oWdrgxbYppHmvKw1VFX--11" value="" style="shape=note2;boundedLbl=1;whiteSpace=wrap;html=1;size=25;verticalAlign=top;align=center;" vertex="1" parent="WIyWlLk6GJQsqaUBKTNV-1">
          <mxGeometry x="800" y="440" width="210" height="150" as="geometry" />
        </mxCell>
        <mxCell id="oWdrgxbYppHmvKw1VFX--12" value="&lt;font style=&quot;font-size: 14px;&quot;&gt;Produkt&lt;/font&gt;" style="swimlane;fontStyle=1;align=center;verticalAlign=top;childLayout=stackLayout;horizontal=1;startSize=26;horizontalStack=0;resizeParent=1;resizeParentMax=0;resizeLast=0;collapsible=1;marginBottom=0;whiteSpace=wrap;html=1;" vertex="1" parent="WIyWlLk6GJQsqaUBKTNV-1">
          <mxGeometry x="440" y="40" width="200" height="230" as="geometry" />
        </mxCell>
        <mxCell id="oWdrgxbYppHmvKw1VFX--13" value="&lt;font style=&quot;font-size: 13px;&quot;&gt;kodProducenta {unique}&lt;br&gt;&lt;br&gt;nazwa&lt;br&gt;&lt;br&gt;wymiary&lt;br&gt;&lt;br&gt;waga&lt;br&gt;&lt;br&gt;&lt;/font&gt;&lt;div&gt;&lt;font style=&quot;font-size: 13px;&quot;&gt;ilośćDostępnychSztuk&lt;/font&gt;&lt;/div&gt;" style="text;strokeColor=none;fillColor=none;align=left;verticalAlign=top;spacingLeft=4;spacingRight=4;overflow=hidden;rotatable=0;points=[[0,0.5],[1,0.5]];portConstraint=eastwest;whiteSpace=wrap;html=1;" vertex="1" parent="oWdrgxbYppHmvKw1VFX--12">
          <mxGeometry y="26" width="200" height="154" as="geometry" />
        </mxCell>
        <mxCell id="oWdrgxbYppHmvKw1VFX--14" value="" style="line;strokeWidth=1;fillColor=none;align=left;verticalAlign=middle;spacingTop=-1;spacingLeft=3;spacingRight=3;rotatable=0;labelPosition=right;points=[];portConstraint=eastwest;strokeColor=inherit;" vertex="1" parent="oWdrgxbYppHmvKw1VFX--12">
          <mxGeometry y="180" width="200" height="50" as="geometry" />
        </mxCell>
        <mxCell id="oWdrgxbYppHmvKw1VFX--17" value="&lt;span style=&quot;font-size: 14px;&quot;&gt;Kompletacja&lt;/span&gt;" style="swimlane;fontStyle=1;align=center;verticalAlign=top;childLayout=stackLayout;horizontal=1;startSize=26;horizontalStack=0;resizeParent=1;resizeParentMax=0;resizeLast=0;collapsible=1;marginBottom=0;whiteSpace=wrap;html=1;" vertex="1" parent="WIyWlLk6GJQsqaUBKTNV-1">
          <mxGeometry x="1170" y="40" width="220" height="290" as="geometry" />
        </mxCell>
        <mxCell id="oWdrgxbYppHmvKw1VFX--18" value="&lt;font style=&quot;font-size: 13px;&quot;&gt;listaLokalizacji&lt;/font&gt;&lt;div&gt;&lt;font style=&quot;font-size: 13px;&quot;&gt;&lt;br&gt;stawka&amp;nbsp;&lt;br&gt;&lt;br&gt;&lt;/font&gt;&lt;/div&gt;&lt;div&gt;&lt;font style=&quot;font-size: 13px;&quot;&gt;czasKompletacji&lt;/font&gt;&lt;/div&gt;&lt;div&gt;&lt;font style=&quot;font-size: 13px;&quot;&gt;długość&amp;nbsp;&lt;br&gt;&lt;br&gt;&lt;/font&gt;&lt;/div&gt;&lt;div&gt;&lt;font style=&quot;font-size: 13px;&quot;&gt;papierNaPrezent [0..1]&lt;br&gt;&lt;br&gt;&lt;/font&gt;&lt;/div&gt;&lt;div&gt;/ bonusPracownika&lt;/div&gt;&lt;div&gt;&lt;br&gt;&lt;/div&gt;&lt;div&gt;licznik&lt;/div&gt;" style="text;strokeColor=none;fillColor=none;align=left;verticalAlign=top;spacingLeft=4;spacingRight=4;overflow=hidden;rotatable=0;points=[[0,0.5],[1,0.5]];portConstraint=eastwest;whiteSpace=wrap;html=1;" vertex="1" parent="oWdrgxbYppHmvKw1VFX--17">
          <mxGeometry y="26" width="220" height="224" as="geometry" />
        </mxCell>
        <mxCell id="oWdrgxbYppHmvKw1VFX--19" value="" style="line;strokeWidth=1;fillColor=none;align=left;verticalAlign=middle;spacingTop=-1;spacingLeft=3;spacingRight=3;rotatable=0;labelPosition=right;points=[];portConstraint=eastwest;strokeColor=inherit;" vertex="1" parent="oWdrgxbYppHmvKw1VFX--17">
          <mxGeometry y="250" width="220" height="40" as="geometry" />
        </mxCell>
        <mxCell id="oWdrgxbYppHmvKw1VFX--20" value="&lt;font style=&quot;font-size: 14px;&quot;&gt;Opakowanie&lt;/font&gt;" style="swimlane;fontStyle=1;align=center;verticalAlign=top;childLayout=stackLayout;horizontal=1;startSize=26;horizontalStack=0;resizeParent=1;resizeParentMax=0;resizeLast=0;collapsible=1;marginBottom=0;whiteSpace=wrap;html=1;" vertex="1" parent="WIyWlLk6GJQsqaUBKTNV-1">
          <mxGeometry x="1170" y="437" width="220" height="230" as="geometry" />
        </mxCell>
        <mxCell id="oWdrgxbYppHmvKw1VFX--21" value="&lt;font size=&quot;2&quot;&gt;wymiary&lt;/font&gt;&lt;br&gt;&lt;div&gt;&lt;font style=&quot;font-size: 13px;&quot;&gt;&lt;br&gt;ilośćDostępnychSztuk&lt;/font&gt;&lt;/div&gt;&lt;div&gt;&lt;font style=&quot;font-size: 13px;&quot;&gt;&lt;br&gt;odpornośćR&lt;/font&gt;&lt;span style=&quot;font-size: 14px;&quot;&gt;odzaj {mechaniczne, biotyczne, klimatyczne, ubytkowe}&lt;/span&gt;&lt;/div&gt;&lt;div&gt;&lt;span style=&quot;font-size: 14px;&quot;&gt;&lt;br&gt;&lt;/span&gt;&lt;/div&gt;&lt;div&gt;&lt;font style=&quot;font-size: 13px;&quot;&gt;liczbaPrzegródek [1..10]&lt;/font&gt;&lt;/div&gt;" style="text;strokeColor=none;fillColor=none;align=left;verticalAlign=top;spacingLeft=4;spacingRight=4;overflow=hidden;rotatable=0;points=[[0,0.5],[1,0.5]];portConstraint=eastwest;whiteSpace=wrap;html=1;" vertex="1" parent="oWdrgxbYppHmvKw1VFX--20">
          <mxGeometry y="26" width="220" height="164" as="geometry" />
        </mxCell>
        <mxCell id="oWdrgxbYppHmvKw1VFX--22" value="" style="line;strokeWidth=1;fillColor=none;align=left;verticalAlign=middle;spacingTop=-1;spacingLeft=3;spacingRight=3;rotatable=0;labelPosition=right;points=[];portConstraint=eastwest;strokeColor=inherit;" vertex="1" parent="oWdrgxbYppHmvKw1VFX--20">
          <mxGeometry y="190" width="220" height="10" as="geometry" />
        </mxCell>
        <mxCell id="oWdrgxbYppHmvKw1VFX--23" value="&lt;div style=&quot;text-align: left;&quot;&gt;&lt;span style=&quot;white-space: normal; caret-color: rgb(7, 7, 7); color: rgb(7, 7, 7);&quot;&gt;&lt;font style=&quot;font-size: 13px;&quot;&gt;całkowity_przeladunek&lt;/font&gt;&lt;/span&gt;&lt;span style=&quot;white-space: normal; caret-color: rgb(7, 7, 7); color: rgb(7, 7, 7); font-size: 14px; text-align: left;&quot;&gt;(rok)&lt;/span&gt;&lt;/div&gt;" style="text;html=1;align=center;verticalAlign=middle;resizable=0;points=[];autosize=1;strokeColor=none;fillColor=none;" vertex="1" parent="oWdrgxbYppHmvKw1VFX--20">
          <mxGeometry y="200" width="220" height="30" as="geometry" />
        </mxCell>
        <mxCell id="oWdrgxbYppHmvKw1VFX--24" value="&lt;font style=&quot;font-size: 13px;&quot;&gt;Jeżeli miałaby to być data ostatniego serwisu wśród wszystkich dźwigów, byłaby to metoda klasowa:&lt;/font&gt;&lt;div&gt;&lt;font style=&quot;font-size: 13px;&quot;&gt;&lt;u&gt;ostatni_serwis_zapis(data)&lt;/u&gt;&lt;/font&gt;&lt;/div&gt;" style="shape=note2;boundedLbl=1;whiteSpace=wrap;html=1;size=25;verticalAlign=top;align=center;" vertex="1" parent="WIyWlLk6GJQsqaUBKTNV-1">
          <mxGeometry x="120" y="437" width="190" height="130" as="geometry" />
        </mxCell>
        <mxCell id="oWdrgxbYppHmvKw1VFX--25" value="&lt;span style=&quot;text-align: left;&quot;&gt;&lt;font style=&quot;font-size: 14px;&quot;&gt;&lt;b&gt;&lt;u&gt;:Produkt&lt;/u&gt;&lt;/b&gt;&lt;/font&gt;&lt;/span&gt;" style="swimlane;fontStyle=0;childLayout=stackLayout;horizontal=1;startSize=26;fillColor=none;horizontalStack=0;resizeParent=1;resizeParentMax=0;resizeLast=0;collapsible=1;marginBottom=0;whiteSpace=wrap;html=1;" vertex="1" parent="WIyWlLk6GJQsqaUBKTNV-1">
          <mxGeometry x="120" y="720" width="270" height="260" as="geometry" />
        </mxCell>
        <mxCell id="oWdrgxbYppHmvKw1VFX--26" value="&lt;font style=&quot;font-size: 13px;&quot;&gt;numer=„1234567”&lt;/font&gt;&lt;div style=&quot;font-size: 13px;&quot;&gt;&lt;font style=&quot;font-size: 13px;&quot;&gt;&amp;nbsp;&lt;br&gt;typ=„platforma”&lt;/font&gt;&lt;/div&gt;&lt;div style=&quot;font-size: 13px;&quot;&gt;&lt;font style=&quot;font-size: 13px;&quot;&gt;&lt;br&gt;rodzaj=„ogrzewany”&amp;nbsp;&lt;/font&gt;&lt;/div&gt;&lt;div style=&quot;font-size: 13px;&quot;&gt;&lt;font style=&quot;font-size: 13px;&quot;&gt;&lt;br&gt;wymiary=„d[]”&lt;/font&gt;&lt;/div&gt;&lt;div style=&quot;font-size: 13px;&quot;&gt;&lt;font style=&quot;font-size: 13px;&quot;&gt;&lt;br&gt;stan=„W porcie”&lt;/font&gt;&lt;/div&gt;&lt;div style=&quot;font-size: 13px;&quot;&gt;&lt;font style=&quot;font-size: 13px;&quot;&gt;&lt;br&gt;&lt;/font&gt;&lt;/div&gt;&lt;div style=&quot;font-size: 13px;&quot;&gt;&lt;font style=&quot;font-size: 13px;&quot;&gt;maksymalna_masa=„30000kg”&lt;/font&gt;&lt;/div&gt;&lt;div style=&quot;font-size: 13px;&quot;&gt;&lt;font style=&quot;font-size: 13px;&quot;&gt;&lt;br&gt;kubatura_wewnętrzna=„obliczona_kubatura”&lt;/font&gt;&lt;br&gt;&lt;/div&gt;" style="text;strokeColor=none;fillColor=none;align=left;verticalAlign=top;spacingLeft=4;spacingRight=4;overflow=hidden;rotatable=0;points=[[0,0.5],[1,0.5]];portConstraint=eastwest;whiteSpace=wrap;html=1;" vertex="1" parent="oWdrgxbYppHmvKw1VFX--25">
          <mxGeometry y="26" width="270" height="234" as="geometry" />
        </mxCell>
        <mxCell id="oWdrgxbYppHmvKw1VFX--27" value="&lt;span style=&quot;text-align: left;&quot;&gt;&lt;font style=&quot;font-size: 14px;&quot;&gt;&lt;b&gt;&lt;u&gt;:Zamówienie&lt;/u&gt;&lt;/b&gt;&lt;/font&gt;&lt;/span&gt;" style="swimlane;fontStyle=0;childLayout=stackLayout;horizontal=1;startSize=26;fillColor=none;horizontalStack=0;resizeParent=1;resizeParentMax=0;resizeLast=0;collapsible=1;marginBottom=0;whiteSpace=wrap;html=1;" vertex="1" parent="WIyWlLk6GJQsqaUBKTNV-1">
          <mxGeometry x="440" y="720" width="240" height="260" as="geometry" />
        </mxCell>
        <mxCell id="oWdrgxbYppHmvKw1VFX--28" value="&lt;font style=&quot;font-size: 13px;&quot;&gt;nazwa=„Emma”&lt;/font&gt;&lt;div&gt;&lt;font style=&quot;font-size: 13px;&quot;&gt;&lt;br&gt;port_macierzysty=„Port Gdynia”&amp;nbsp;&lt;/font&gt;&lt;/div&gt;&lt;div&gt;&lt;font style=&quot;font-size: 13px;&quot;&gt;&lt;br&gt;maksymalna_pojemność=„5000TEU”&lt;/font&gt;&lt;/div&gt;&lt;div&gt;&lt;font style=&quot;font-size: 13px;&quot;&gt;&lt;br&gt;długość=„320,04m”&lt;/font&gt;&lt;/div&gt;&lt;div&gt;&lt;font style=&quot;font-size: 13px;&quot;&gt;&lt;br&gt;szerokość_całkowita=„33,54m”&lt;/font&gt;&lt;/div&gt;&lt;div&gt;&lt;font style=&quot;font-size: 13px;&quot;&gt;&lt;br&gt;zanurzenie=„12,5m”&lt;/font&gt;&lt;/div&gt;&lt;div&gt;&lt;font style=&quot;font-size: 13px;&quot;&gt;&lt;br&gt;klasa_wymiarów = Panamax&lt;/font&gt;&lt;/div&gt;" style="text;strokeColor=none;fillColor=none;align=left;verticalAlign=top;spacingLeft=4;spacingRight=4;overflow=hidden;rotatable=0;points=[[0,0.5],[1,0.5]];portConstraint=eastwest;whiteSpace=wrap;html=1;" vertex="1" parent="oWdrgxbYppHmvKw1VFX--27">
          <mxGeometry y="26" width="240" height="234" as="geometry" />
        </mxCell>
        <mxCell id="oWdrgxbYppHmvKw1VFX--29" value="&lt;span style=&quot;font-size: 14px; text-align: left;&quot;&gt;&lt;b&gt;&lt;u&gt;:Kompletacja&lt;/u&gt;&lt;/b&gt;&lt;/span&gt;" style="swimlane;fontStyle=0;childLayout=stackLayout;horizontal=1;startSize=26;fillColor=none;horizontalStack=0;resizeParent=1;resizeParentMax=0;resizeLast=0;collapsible=1;marginBottom=0;whiteSpace=wrap;html=1;" vertex="1" parent="WIyWlLk6GJQsqaUBKTNV-1">
          <mxGeometry x="800" y="720" width="260" height="180" as="geometry" />
        </mxCell>
        <mxCell id="oWdrgxbYppHmvKw1VFX--30" value="&lt;font style=&quot;font-size: 13px;&quot;&gt;udźwig=„7000kg”&lt;/font&gt;&lt;div&gt;&lt;font style=&quot;font-size: 13px;&quot;&gt;&lt;br&gt;numer_rejestracyjny_UDT=„124334696”&lt;/font&gt;&lt;/div&gt;&lt;div&gt;&lt;font style=&quot;font-size: 13px;&quot;&gt;&lt;br&gt;lista_obsługiwanych_chwytaków={„chwytak 1”, „chwytak 2”}&lt;/font&gt;&lt;/div&gt;&lt;div&gt;&lt;font style=&quot;font-size: 13px;&quot;&gt;&lt;br&gt;data_ostatniego_serwisu=„23.12.2021”&lt;/font&gt;&lt;/div&gt;" style="text;strokeColor=none;fillColor=none;align=left;verticalAlign=top;spacingLeft=4;spacingRight=4;overflow=hidden;rotatable=0;points=[[0,0.5],[1,0.5]];portConstraint=eastwest;whiteSpace=wrap;html=1;" vertex="1" parent="oWdrgxbYppHmvKw1VFX--29">
          <mxGeometry y="26" width="260" height="154" as="geometry" />
        </mxCell>
        <mxCell id="oWdrgxbYppHmvKw1VFX--31" value="&lt;span style=&quot;font-size: 14px; text-align: left;&quot;&gt;&lt;b&gt;&lt;u&gt;:Pracownik&lt;/u&gt;&lt;/b&gt;&lt;/span&gt;" style="swimlane;fontStyle=0;childLayout=stackLayout;horizontal=1;startSize=26;fillColor=none;horizontalStack=0;resizeParent=1;resizeParentMax=0;resizeLast=0;collapsible=1;marginBottom=0;whiteSpace=wrap;html=1;" vertex="1" parent="WIyWlLk6GJQsqaUBKTNV-1">
          <mxGeometry x="120" y="1040" width="240" height="190" as="geometry" />
        </mxCell>
        <mxCell id="oWdrgxbYppHmvKw1VFX--32" value="&lt;font style=&quot;font-size: 13px;&quot;&gt;nazwa_portu=„Port Gdynia&quot;&lt;/font&gt;&lt;div&gt;&lt;font style=&quot;font-size: 13px;&quot;&gt;&lt;br&gt;rok=„2021”&lt;/font&gt;&lt;/div&gt;&lt;div&gt;&lt;font style=&quot;font-size: 13px;&quot;&gt;&amp;nbsp;&lt;br&gt;miesiąc=”Kwiecień”&lt;/font&gt;&lt;/div&gt;&lt;div&gt;&lt;font style=&quot;font-size: 13px;&quot;&gt;&lt;br&gt;liczba_kontenerów=„45500”&lt;/font&gt;&lt;/div&gt;&lt;div&gt;&lt;font style=&quot;font-size: 13px;&quot;&gt;&lt;br&gt;porównanie_z_rokiem_poprzednim [0..1]&lt;/font&gt;&lt;/div&gt;" style="text;strokeColor=none;fillColor=none;align=left;verticalAlign=top;spacingLeft=4;spacingRight=4;overflow=hidden;rotatable=0;points=[[0,0.5],[1,0.5]];portConstraint=eastwest;whiteSpace=wrap;html=1;" vertex="1" parent="oWdrgxbYppHmvKw1VFX--31">
          <mxGeometry y="26" width="240" height="164" as="geometry" />
        </mxCell>
        <mxCell id="oWdrgxbYppHmvKw1VFX--33" value="&lt;span style=&quot;text-align: left; font-size: 14px;&quot;&gt;&lt;b&gt;&lt;font style=&quot;font-size: 14px;&quot;&gt;:Opakowanie&lt;/font&gt;&lt;/b&gt;&lt;/span&gt;" style="swimlane;fontStyle=0;childLayout=stackLayout;horizontal=1;startSize=26;fillColor=none;horizontalStack=0;resizeParent=1;resizeParentMax=0;resizeLast=0;collapsible=1;marginBottom=0;whiteSpace=wrap;html=1;" vertex="1" parent="WIyWlLk6GJQsqaUBKTNV-1">
          <mxGeometry x="1170" y="740" width="220" height="180" as="geometry" />
        </mxCell>
        <mxCell id="oWdrgxbYppHmvKw1VFX--34" value="&lt;font style=&quot;font-size: 13px;&quot;&gt;rozpoczęcie=„23.04.2021 13:12:43”&lt;/font&gt;&lt;div&gt;&lt;font style=&quot;font-size: 13px;&quot;&gt;&lt;br&gt;koniec=„25.04.2021 15:23:23”&lt;/font&gt;&lt;/div&gt;&lt;div&gt;&lt;font style=&quot;font-size: 13px;&quot;&gt;&amp;nbsp;&lt;br&gt;nazwa_kontenerowca=„Emma”&amp;nbsp;&lt;/font&gt;&lt;/div&gt;&lt;div&gt;&lt;font style=&quot;font-size: 13px;&quot;&gt;&lt;br&gt;liczba_kontenerów=„4500”&lt;/font&gt;&lt;/div&gt;&lt;div&gt;&lt;font style=&quot;font-size: 13px;&quot;&gt;&lt;br&gt;rodzaj=„Rozładunek”&lt;/font&gt;&lt;br&gt;&lt;/div&gt;" style="text;strokeColor=none;fillColor=none;align=left;verticalAlign=top;spacingLeft=4;spacingRight=4;overflow=hidden;rotatable=0;points=[[0,0.5],[1,0.5]];portConstraint=eastwest;whiteSpace=wrap;html=1;" vertex="1" parent="oWdrgxbYppHmvKw1VFX--33">
          <mxGeometry y="26" width="220" height="154" as="geometry" />
        </mxCell>
      </root>
    </mxGraphModel>
  </diagram>
</mxfile>
